<svg width="256" height="256" viewBox="0 0 256 256" fill="none" xmlns="http://www.w3.org/2000/svg">
  <rect width="256" height="256" rx="48" fill="#FAFAF8"/>
  <g stroke="#B38A3A" stroke-width="10" stroke-linecap="round" stroke-linejoin="round">
    <rect x="53" y="53" width="150" height="150" rx="14" transform="rotate(45 53 53)"/>
    <path d="M100 86H156C164.837 86 172 93.1634 172 102V146H84V102C84 93.1634 91.1634 86 100 86Z"/>
    <path d="M84 114C75.1634 114 68 121.163 68 130V164"/>
    <path d="M172 114C180.837 114 188 121.163 188 130V164"/>
    <path d="M108 146L128 124L148 146"/>
    <path d="M84 146H172"/>
    <rect x="128" y="147" width="44" height="44" rx="6" transform="rotate(45 128 147)"/>
  </g>
</svg>
